<?xml version="1.0" encoding="utf-8"?>
<!-- Generator: Adobe Illustrator 28.1.0, SVG Export Plug-In . SVG Version: 6.00 Build 0)  -->
<svg version="1.1" id="Layer_1" xmlns="http://www.w3.org/2000/svg" xmlns:xlink="http://www.w3.org/1999/xlink" x="0px" y="0px"
	 viewBox="0 0 31.9 32" style="enable-background:new 0 0 31.9 32;" xml:space="preserve">
<style type="text/css">
	.st0{fill:#29537A;}
	.st1{fill:#427093;}
	.st2{fill:#093260;}
	.st3{fill:#ED9015;}
	.st4{fill:#EAB818;}
	.st5{fill:#F26606;}
</style>
<g>
	<path class="st0" d="M19.9,12.1l-1.3-0.4l-18,17.1c-0.7,0.7-0.7,1.9,0,2.6c0.7,0.7,1.9,0.7,2.6,0l17.1-18L19.9,12.1z"/>
	<path class="st1" d="M0.5,28.8c-0.1,0.1-0.2,0.3-0.3,0.4c0.1,0.1,0.2,0.3,0.3,0.4c0.7,0.7,1.9,0.7,2.6,0L19.8,12l-1.2-0.4L0.5,28.8
		z"/>
	<polygon class="st2" points="18.6,11.7 15.1,14.9 16.6,15.4 17,16.8 20.3,13.4 19.9,12.1 	"/>
	<path class="st3" d="M31.7,12.4c0.2-0.4,0.2-1-0.1-1.4l-2.7-3.6l1.4-4.3c0.3-0.9-0.7-1.9-1.6-1.6L24.5,3l-3.6-2.7
		C20.5,0,20,0,19.5,0.2c-0.4,0.2-0.7,0.7-0.7,1.2l0.1,4.5l-3.7,2.6c-0.4,0.3-0.6,0.8-0.5,1.2c0.1,0.5,0.4,0.9,0.9,1l4.3,1.3l1.3,4.3
		c0.1,0.2,0.2,0.4,0.3,0.5c0.2,0.2,0.4,0.3,0.7,0.4c0.5,0.1,1-0.1,1.2-0.5l2.6-3.7l4.5,0.1C31.1,13.1,31.5,12.8,31.7,12.4z"/>
	<path class="st4" d="M28.8,1.6L24.5,3l-3.6-2.7C20.5,0,20,0,19.5,0.2c-0.4,0.2-0.7,0.7-0.7,1.2l0.1,4.5l-3.7,2.6
		c-0.4,0.3-0.6,0.8-0.5,1.2c0.1,0.5,0.4,0.9,0.9,1l4.3,1.3L30,1.9C29.7,1.6,29.2,1.4,28.8,1.6z"/>
	<path class="st5" d="M26.1,13.1L26.1,13.1l4.5,0c0.5,0,0.9-0.3,1.2-0.7c0.2-0.4,0.2-1-0.1-1.4l-2.7-3.6l1.4-4.3
		c0.3-0.9-0.7-1.9-1.6-1.6L24.5,3l0,0L26.1,13.1z"/>
	<path class="st3" d="M25.1,6.9L30,1.9c-0.3-0.3-0.8-0.5-1.3-0.4L24.5,3l0,0L25.1,6.9z"/>
</g>
</svg>
