<svg width="144" height="35" viewBox="0 0 144 35" fill="none" xmlns="http://www.w3.org/2000/svg">
<path d="M124.6 35C121.859 35 119.325 34.5697 116.998 33.709C114.703 32.8484 112.71 31.6371 111.021 30.0751C109.332 28.4813 108.009 26.6166 107.052 24.4809C106.128 22.3452 105.666 20.0182 105.666 17.5C105.666 14.9499 106.128 12.623 107.052 10.5191C108.009 8.38342 109.332 6.53461 111.021 4.97268C112.71 3.37887 114.703 2.15164 116.998 1.29098C119.325 0.430328 121.843 0 124.552 0C127.294 0 129.812 0.430328 132.107 1.29098C134.402 2.15164 136.394 3.37887 138.084 4.97268C139.773 6.53461 141.08 8.38342 142.005 10.5191C142.961 12.623 143.439 14.9499 143.439 17.5C143.439 20.0182 142.961 22.3452 142.005 24.4809C141.08 26.6166 139.773 28.4813 138.084 30.0751C136.394 31.6371 134.402 32.8484 132.107 33.709C129.812 34.5697 127.31 35 124.6 35ZM124.552 25.8675C125.604 25.8675 126.577 25.6762 127.469 25.2937C128.393 24.9112 129.19 24.3693 129.86 23.668C130.561 22.9349 131.103 22.0583 131.485 21.0382C131.868 19.9863 132.059 18.8069 132.059 17.5C132.059 16.1931 131.868 15.0296 131.485 14.0096C131.103 12.9576 130.561 12.0811 129.86 11.3798C129.19 10.6466 128.393 10.0888 127.469 9.70628C126.577 9.32377 125.604 9.13251 124.552 9.13251C123.5 9.13251 122.512 9.32377 121.588 9.70628C120.695 10.0888 119.898 10.6466 119.197 11.3798C118.528 12.0811 118.002 12.9576 117.619 14.0096C117.237 15.0296 117.046 16.1931 117.046 17.5C117.046 18.8069 117.237 19.9863 117.619 21.0382C118.002 22.0583 118.528 22.9349 119.197 23.668C119.898 24.3693 120.695 24.9112 121.588 25.2937C122.512 25.6762 123.5 25.8675 124.552 25.8675Z" fill="white"/>
<path d="M87.6133 35C84.9039 35 82.4016 34.5856 80.1065 33.7568C77.8433 32.8962 75.867 31.6849 74.1775 30.123C72.52 28.561 71.229 26.7122 70.3046 24.5765C69.3802 22.4408 68.918 20.082 68.918 17.5C68.918 14.918 69.3802 12.5592 70.3046 10.4235C71.229 8.2878 72.5359 6.43898 74.2253 4.87705C75.9148 3.31512 77.907 2.11976 80.2021 1.29098C82.5291 0.430328 85.0792 0 87.8524 0C91.1675 0 94.1161 0.557832 96.698 1.6735C99.3119 2.78916 101.464 4.38297 103.153 6.45492L95.933 12.8142C94.8811 11.6029 93.7335 10.6944 92.4904 10.0888C91.2791 9.45127 89.9243 9.13251 88.4262 9.13251C87.183 9.13251 86.0514 9.32377 85.0314 9.70628C84.0432 10.0888 83.1985 10.6466 82.4972 11.3798C81.7959 12.1129 81.254 12.9895 80.8715 14.0096C80.489 15.0296 80.2978 16.1931 80.2978 17.5C80.2978 18.7432 80.489 19.8907 80.8715 20.9426C81.254 21.9627 81.7959 22.8393 82.4972 23.5724C83.1985 24.3056 84.0273 24.8793 84.9835 25.2937C85.9717 25.6762 87.0714 25.8675 88.2827 25.8675C89.5578 25.8675 90.8009 25.6603 92.0122 25.2459C93.2235 24.7996 94.5145 24.0505 95.8852 22.9986L102.197 30.7445C100.157 32.1152 97.8296 33.1671 95.2158 33.9003C92.6019 34.6334 90.0678 35 87.6133 35ZM92.3947 29.3101V16.5915H102.197V30.7445L92.3947 29.3101Z" fill="white"/>
<path d="M47.3226 35C44.5813 35 42.0471 34.5697 39.7202 33.709C37.4251 32.8484 35.4328 31.6371 33.7434 30.0751C32.0539 28.4813 30.7311 26.6166 29.7748 24.4809C28.8504 22.3452 28.3882 20.0182 28.3882 17.5C28.3882 14.9499 28.8504 12.623 29.7748 10.5191C30.7311 8.38342 32.0539 6.53461 33.7434 4.97268C35.4328 3.37887 37.4251 2.15164 39.7202 1.29098C42.0471 0.430328 44.5653 0 47.2748 0C50.0161 0 52.5344 0.430328 54.8294 1.29098C57.1245 2.15164 59.1168 3.37887 60.8062 4.97268C62.4956 6.53461 63.8026 8.38342 64.727 10.5191C65.6833 12.623 66.1614 14.9499 66.1614 17.5C66.1614 20.0182 65.6833 22.3452 64.727 24.4809C63.8026 26.6166 62.4956 28.4813 60.8062 30.0751C59.1168 31.6371 57.1245 32.8484 54.8294 33.709C52.5344 34.5697 50.0321 35 47.3226 35ZM47.2748 25.8675C48.3267 25.8675 49.2989 25.6762 50.1915 25.2937C51.1159 24.9112 51.9128 24.3693 52.5822 23.668C53.2834 22.9349 53.8253 22.0583 54.2079 21.0382C54.5904 19.9863 54.7816 18.8069 54.7816 17.5C54.7816 16.1931 54.5904 15.0296 54.2079 14.0096C53.8253 12.9576 53.2834 12.0811 52.5822 11.3798C51.9128 10.6466 51.1159 10.0888 50.1915 9.70628C49.2989 9.32377 48.3267 9.13251 47.2748 9.13251C46.2229 9.13251 45.2347 9.32377 44.3103 9.70628C43.4178 10.0888 42.6209 10.6466 41.9196 11.3798C41.2502 12.0811 40.7243 12.9576 40.3417 14.0096C39.9592 15.0296 39.768 16.1931 39.768 17.5C39.768 18.8069 39.9592 19.9863 40.3417 21.0382C40.7243 22.0583 41.2502 22.9349 41.9196 23.668C42.6209 24.3693 43.4178 24.9112 44.3103 25.2937C45.2347 25.6762 46.2229 25.8675 47.2748 25.8675Z" fill="white"/>
<path d="M0.684082 34.235V0.765015H11.9682V25.485H27.0775V34.235H0.684082Z" fill="white"/>
</svg>
